<?xml version="1.0" encoding="UTF-8"?>
<svg width="5048px" height="1699px" viewBox="0 0 5048 1699" version="1.1" xmlns="http://www.w3.org/2000/svg" xmlns:xlink="http://www.w3.org/1999/xlink">
    <title>leander.xyz logo header</title>
    <desc>Created with Sketch.</desc>
    <g id="Tilted" stroke="none" stroke-width="1" fill="none" fill-rule="evenodd">
        <g id="Logo" transform="translate(1729.646858, 852.248663) rotate(45.000000) translate(-1729.646858, -852.248663) translate(-679.353142, -1549.751337)">
            <polygon id="textarea" fill="#0F0F0F" points="1184.41421 2422.41421 1185.12132 3623.12132 2385.12132 3623.12132 4754.09112 1254.15152 4754.09112 54.151519 3554.09112 54.151519"></polygon>
            <text id="site-text" transform="translate(3470.087603, 1347.631802) rotate(-45.000000) translate(-3470.087603, -1347.631802) " font-family="DankMono-Italic, Dank Mono" font-size="500" font-style="italic" font-weight="normal" fill="#FFFFFF">
                <tspan x="1946.5876" y="1455.6318">leander.xyz</tspan>
            </text>
            <polygon id="r-path" fill="#FEFEFE" points="1583 2521 1583 3218.6 1783.5 3218.6 1783 2721 2083 2721 2083 2921 1883 2921 1883 3121 2283 3521 2283 3238.56 2163 3121 2283 3121 2283 2521"></polygon>
            <polygon id="l-path" fill="#4DCCB0" points="1283 2521 1283 3521 2283 3521 2083 3320.8 1483 3320.8 1482.1992 2521"></polygon>
        </g>
    </g>
</svg>